<svg width="30" height="30" viewBox="0 0 30 30" fill="none" xmlns="http://www.w3.org/2000/svg">
<path d="M15.0049 0C8.74253 0 6.91103 0.00646208 6.55502 0.036003C5.26988 0.142858 4.47019 0.34526 3.59896 0.779143C2.92755 1.11263 2.39804 1.4992 1.87544 2.0411C0.923698 3.02933 0.346884 4.24513 0.138077 5.69033C0.0365572 6.39193 0.00702432 6.53501 0.00102545 10.1187C-0.00128181 11.3133 0.00102545 12.8854 0.00102545 14.9941C0.00102545 21.2531 0.00794723 23.0833 0.0379416 23.4387C0.141768 24.6896 0.337885 25.4765 0.753192 26.3374C1.54689 27.9852 3.06276 29.2222 4.84858 29.6838C5.46692 29.8431 6.14987 29.9308 7.02663 29.9723C7.3981 29.9885 11.1843 30 14.9728 30C18.7613 30 22.5499 29.9954 22.9121 29.9769C23.9273 29.9291 24.5168 29.85 25.1686 29.6815C26.0541 29.4544 26.8793 29.0366 27.5867 28.4574C28.294 27.8782 28.8665 27.1516 29.264 26.3282C29.6712 25.4881 29.8777 24.6711 29.9712 23.4855C29.9915 23.227 30 19.1058 30 14.9902C30 10.8738 29.9908 6.76026 29.9705 6.50178C29.8759 5.29706 29.6694 4.48699 29.249 3.63077C28.9041 2.92986 28.521 2.40643 27.965 1.87124C26.9729 0.923155 25.7593 0.346183 24.3128 0.13755C23.6121 0.0362338 23.4725 0.0062313 19.8871 0H15.0049Z" fill="url(#paint0_radial_226_1721)"/>
<path d="M15.0049 0C8.74253 0 6.91103 0.00646208 6.55502 0.036003C5.26988 0.142858 4.47019 0.34526 3.59896 0.779143C2.92755 1.11263 2.39804 1.4992 1.87544 2.0411C0.923698 3.02933 0.346884 4.24513 0.138077 5.69033C0.0365572 6.39193 0.00702432 6.53501 0.00102545 10.1187C-0.00128181 11.3133 0.00102545 12.8854 0.00102545 14.9941C0.00102545 21.2531 0.00794723 23.0833 0.0379416 23.4387C0.141768 24.6896 0.337885 25.4765 0.753192 26.3374C1.54689 27.9852 3.06276 29.2222 4.84858 29.6838C5.46692 29.8431 6.14987 29.9308 7.02663 29.9723C7.3981 29.9885 11.1843 30 14.9728 30C18.7613 30 22.5499 29.9954 22.9121 29.9769C23.9273 29.9291 24.5168 29.85 25.1686 29.6815C26.0541 29.4544 26.8793 29.0366 27.5867 28.4574C28.294 27.8782 28.8665 27.1516 29.264 26.3282C29.6712 25.4881 29.8777 24.6711 29.9712 23.4855C29.9915 23.227 30 19.1058 30 14.9902C30 10.8738 29.9908 6.76026 29.9705 6.50178C29.8759 5.29706 29.6694 4.48699 29.249 3.63077C28.9041 2.92986 28.521 2.40643 27.965 1.87124C26.9729 0.923155 25.7593 0.346183 24.3128 0.13755C23.6121 0.0362338 23.4725 0.0062313 19.8871 0H15.0049Z" fill="url(#paint1_radial_226_1721)"/>
<path d="M14.9979 3.9234C11.9902 3.9234 11.6127 3.93656 10.4314 3.99033C9.25236 4.04433 8.44759 4.23104 7.74341 4.50499C7.01501 4.78794 6.39713 5.16643 5.78155 5.7824C5.16551 6.39815 4.78712 7.0162 4.50333 7.74457C4.22877 8.44917 4.04188 9.25439 3.98881 10.4333C3.93621 11.6149 3.92236 11.9927 3.92236 15.0013C3.92236 18.0098 3.93575 18.3862 3.98927 19.5679C4.04349 20.7472 4.23015 21.5522 4.50379 22.2566C4.78689 22.9852 5.16528 23.6032 5.78109 24.219C6.39644 24.8352 7.01432 25.2146 7.74226 25.4975C8.4469 25.7715 9.2519 25.9582 10.4307 26.0122C11.612 26.066 11.9892 26.0791 14.9967 26.0791C18.0047 26.0791 18.381 26.066 19.5623 26.0122C20.7414 25.9582 21.5471 25.7715 22.2517 25.4975C22.9799 25.2146 23.5968 24.8352 24.2122 24.219C24.8282 23.6032 25.2066 22.9852 25.4904 22.2568C25.7626 21.5522 25.9495 20.747 26.0049 19.5681C26.058 18.3865 26.0718 18.0098 26.0718 15.0013C26.0718 11.9927 26.058 11.6151 26.0049 10.4335C25.9495 9.25416 25.7626 8.44917 25.4904 7.7448C25.2066 7.0162 24.8282 6.39815 24.2122 5.7824C23.5961 5.1662 22.9801 4.7877 22.251 4.50499C21.545 4.23104 20.7397 4.04433 19.5607 3.99033C18.3794 3.93656 18.0033 3.9234 14.9947 3.9234H14.9979ZM14.0044 5.91972C14.2993 5.91926 14.6283 5.91972 14.9979 5.91972C17.9549 5.91972 18.3054 5.93034 19.4731 5.98342C20.5529 6.03281 21.1389 6.21329 21.5293 6.36491C22.0461 6.5657 22.4146 6.80572 22.802 7.19345C23.1896 7.58117 23.4295 7.95043 23.6307 8.4674C23.7823 8.85743 23.963 9.44364 24.0121 10.5237C24.0652 11.6915 24.0767 12.0423 24.0767 14.9987C24.0767 17.9551 24.0652 18.3059 24.0121 19.4737C23.9627 20.5538 23.7823 21.14 23.6307 21.53C23.43 22.047 23.1896 22.4151 22.802 22.8026C22.4143 23.1903 22.0463 23.4304 21.5293 23.6311C21.1394 23.7835 20.5529 23.9635 19.4731 24.0129C18.3056 24.0659 17.9549 24.0775 14.9979 24.0775C12.0407 24.0775 11.6902 24.0659 10.5227 24.0129C9.44294 23.963 8.8569 23.7825 8.46628 23.6309C7.94945 23.4301 7.58029 23.1901 7.19267 22.8024C6.80505 22.4147 6.5651 22.0463 6.3639 21.5291C6.21232 21.1391 6.03166 20.5529 5.98251 19.4728C5.92945 18.305 5.91883 17.9542 5.91883 14.996C5.91883 12.0377 5.92945 11.6887 5.98251 10.521C6.03189 9.44087 6.21232 8.85466 6.3639 8.46417C6.56464 7.9472 6.80505 7.57794 7.19267 7.19022C7.58029 6.80249 7.94945 6.56247 8.46628 6.36122C8.85667 6.2089 9.44294 6.02889 10.5227 5.97927C11.5444 5.93311 11.9403 5.91926 14.0044 5.91695V5.91972ZM20.9096 7.75911C20.6467 7.75911 20.3897 7.83709 20.1712 7.98318C19.9526 8.12927 19.7823 8.33691 19.6817 8.57984C19.5811 8.82277 19.5548 9.09008 19.6061 9.34796C19.6575 9.60584 19.7841 9.84271 19.97 10.0286C20.1559 10.2145 20.3927 10.3411 20.6506 10.3923C20.9084 10.4436 21.1756 10.4172 21.4185 10.3165C21.6613 10.2158 21.8688 10.0453 22.0148 9.82666C22.1608 9.60799 22.2386 9.35093 22.2385 9.08799C22.2385 8.35408 21.6433 7.75865 20.9096 7.75865V7.75911ZM14.9979 9.31232C11.857 9.31232 9.3105 11.8595 9.3105 15.0013C9.3105 18.143 11.857 20.689 14.9979 20.689C18.1388 20.689 20.6846 18.143 20.6846 15.0013C20.6846 11.8595 18.1385 9.31232 14.9977 9.31232H14.9979ZM14.9979 11.3086C17.0366 11.3086 18.6895 12.9618 18.6895 15.0013C18.6895 17.0405 17.0366 18.6939 14.9979 18.6939C12.959 18.6939 11.3063 17.0405 11.3063 15.0013C11.3063 12.9618 12.959 11.3086 14.9979 11.3086Z" fill="white"/>
<defs>
<radialGradient id="paint0_radial_226_1721" cx="0" cy="0" r="1" gradientUnits="userSpaceOnUse" gradientTransform="translate(7.96879 32.3106) rotate(-90) scale(29.7322 27.6533)">
<stop stop-color="#FFDD55"/>
<stop offset="0.1" stop-color="#FFDD55"/>
<stop offset="0.5" stop-color="#FF543E"/>
<stop offset="1" stop-color="#C837AB"/>
</radialGradient>
<radialGradient id="paint1_radial_226_1721" cx="0" cy="0" r="1" gradientUnits="userSpaceOnUse" gradientTransform="translate(-5.02516 2.16115) rotate(78.6806) scale(13.2904 54.7837)">
<stop stop-color="#3771C8"/>
<stop offset="0.128" stop-color="#3771C8"/>
<stop offset="1" stop-color="#6600FF" stop-opacity="0"/>
</radialGradient>
</defs>
</svg>
