<svg width="50" height="50" viewBox="0 0 50 50" fill="none" xmlns="http://www.w3.org/2000/svg">
<path fill-rule="evenodd" clip-rule="evenodd" d="M25 50C38.807 50 50 38.807 50 25C50 11.193 38.807 0 25 0C11.193 0 0 11.193 0 25C0 38.807 11.193 50 25 50ZM35.9885 15.972C36.1815 13.782 33.8685 14.684 33.8685 14.684C32.161 15.391 30.4 16.109 28.62 16.835C23.1 19.0865 17.398 21.4125 12.5405 23.702C9.9065 24.668 11.4485 25.634 11.4485 25.634L15.624 26.9225C17.5515 27.5025 18.579 26.858 18.579 26.858L27.573 20.739C30.785 18.549 30.014 20.3525 29.243 21.1255L22.498 27.5665C21.47 28.4685 21.984 29.2415 22.4335 29.628C23.7085 30.7525 26.8435 32.81 28.212 33.708C28.568 33.9415 28.8045 34.097 28.858 34.137C29.179 34.3945 30.9135 35.554 32.07 35.2965C33.2265 35.0385 33.355 33.557 33.355 33.557L34.8965 23.444C35.1275 21.6885 35.393 20.001 35.605 18.653C35.805 17.38 35.9575 16.4105 35.9885 15.972Z" fill="black"/>
</svg>
