<svg width="50" height="50" viewBox="0 0 50 50" fill="none" xmlns="http://www.w3.org/2000/svg">
<path fill-rule="evenodd" clip-rule="evenodd" d="M25 50C38.807 50 50 38.807 50 25C50 11.193 38.807 0 25 0C11.193 0 0 11.193 0 25C0 38.807 11.193 50 25 50ZM12.5 17C12.703 26.744 17.575 32.6 26.1165 32.6H26.6005V27.025C29.7395 27.3375 32.1125 29.633 33.0655 32.6H37.5C36.282 28.165 33.081 25.7135 31.082 24.7765C33.081 23.621 35.8915 20.81 36.563 17H32.534C31.6595 20.092 29.068 22.9025 26.6005 23.168V17H22.572V27.8055C20.0735 27.181 16.919 24.152 16.778 17H12.5Z" fill="black"/>
</svg>
